<mxfile host="65bd71144e">
    <diagram id="vKuEH-y9Z0ZvnTDw-Nh4" name="ページ1">
        <mxGraphModel dx="557" dy="374" grid="0" gridSize="10" guides="1" tooltips="1" connect="1" arrows="1" fold="1" page="1" pageScale="1" pageWidth="827" pageHeight="1169" math="0" shadow="0">
            <root>
                <mxCell id="0"/>
                <mxCell id="1" parent="0"/>
                <mxCell id="2" value="Assets" style="childLayout=tableLayout;recursiveResize=0;shadow=1;fillColor=#eeeeee;strokeColor=#36393d;fontColor=#0e0101;" parent="1" vertex="1">
                    <mxGeometry x="134" y="92" width="330" height="160" as="geometry"/>
                </mxCell>
                <mxCell id="3" style="shape=tableRow;horizontal=0;startSize=0;swimlaneHead=0;swimlaneBody=0;top=0;left=0;bottom=0;right=0;dropTarget=0;collapsible=0;recursiveResize=0;expand=0;fontStyle=0;fillColor=#eeeeee;strokeColor=#36393d;fontColor=#0e0101;" parent="2" vertex="1">
                    <mxGeometry width="330" height="33" as="geometry"/>
                </mxCell>
                <mxCell id="4" value="項目" style="connectable=0;recursiveResize=0;align=center;fontStyle=1;html=1;fillColor=#eeeeee;strokeColor=#36393d;fontColor=#0e0101;" parent="3" vertex="1">
                    <mxGeometry width="163" height="33" as="geometry">
                        <mxRectangle width="163" height="33" as="alternateBounds"/>
                    </mxGeometry>
                </mxCell>
                <mxCell id="5" value="説明" style="connectable=0;recursiveResize=0;align=center;fontStyle=1;html=1;fillColor=#eeeeee;strokeColor=#36393d;fontColor=#0e0101;" parent="3" vertex="1">
                    <mxGeometry x="163" width="167" height="33" as="geometry">
                        <mxRectangle width="167" height="33" as="alternateBounds"/>
                    </mxGeometry>
                </mxCell>
                <mxCell id="7" value="" style="shape=tableRow;horizontal=0;startSize=0;swimlaneHead=0;swimlaneBody=0;top=0;left=0;bottom=0;right=0;dropTarget=0;collapsible=0;recursiveResize=0;expand=0;fontStyle=0;fillColor=#eeeeee;strokeColor=#36393d;fontColor=#0e0101;" parent="2" vertex="1">
                    <mxGeometry y="33" width="330" height="32" as="geometry"/>
                </mxCell>
                <mxCell id="8" value="メソッド名" style="connectable=0;recursiveResize=0;align=center;whiteSpace=wrap;html=1;fillColor=#eeeeee;strokeColor=#36393d;fontColor=#0e0101;" parent="7" vertex="1">
                    <mxGeometry width="163" height="32" as="geometry">
                        <mxRectangle width="163" height="32" as="alternateBounds"/>
                    </mxGeometry>
                </mxCell>
                <mxCell id="9" value="isCorrectAnswer" style="connectable=0;recursiveResize=0;align=center;whiteSpace=wrap;html=1;fillColor=#eeeeee;strokeColor=#36393d;fontColor=#0e0101;" parent="7" vertex="1">
                    <mxGeometry x="163" width="167" height="32" as="geometry">
                        <mxRectangle width="167" height="32" as="alternateBounds"/>
                    </mxGeometry>
                </mxCell>
                <mxCell id="11" value="" style="shape=tableRow;horizontal=0;startSize=0;swimlaneHead=0;swimlaneBody=0;top=0;left=0;bottom=0;right=0;dropTarget=0;collapsible=0;recursiveResize=0;expand=0;fontStyle=1;fillColor=#eeeeee;strokeColor=#36393d;fontColor=#0e0101;" parent="2" vertex="1">
                    <mxGeometry y="65" width="330" height="31" as="geometry"/>
                </mxCell>
                <mxCell id="12" value="処理" style="connectable=0;recursiveResize=0;whiteSpace=wrap;html=1;fillColor=#eeeeee;strokeColor=#36393d;fontColor=#0e0101;" parent="11" vertex="1">
                    <mxGeometry width="163" height="31" as="geometry">
                        <mxRectangle width="163" height="31" as="alternateBounds"/>
                    </mxGeometry>
                </mxCell>
                <mxCell id="13" value="プレイヤーの解答が正解かどうか判定する" style="connectable=0;recursiveResize=0;whiteSpace=wrap;html=1;fillColor=#eeeeee;strokeColor=#36393d;fontColor=#0e0101;" parent="11" vertex="1">
                    <mxGeometry x="163" width="167" height="31" as="geometry">
                        <mxRectangle width="167" height="31" as="alternateBounds"/>
                    </mxGeometry>
                </mxCell>
                <mxCell id="15" value="" style="shape=tableRow;horizontal=0;startSize=0;swimlaneHead=0;swimlaneBody=0;top=0;left=0;bottom=0;right=0;dropTarget=0;collapsible=0;recursiveResize=0;expand=0;fontStyle=0;fillColor=#eeeeee;strokeColor=#36393d;fontColor=#0e0101;" parent="2" vertex="1">
                    <mxGeometry y="96" width="330" height="33" as="geometry"/>
                </mxCell>
                <mxCell id="16" value="引数" style="connectable=0;recursiveResize=0;fontStyle=0;align=center;whiteSpace=wrap;html=1;fillColor=#eeeeee;strokeColor=#36393d;fontColor=#0e0101;" parent="15" vertex="1">
                    <mxGeometry width="163" height="33" as="geometry">
                        <mxRectangle width="163" height="33" as="alternateBounds"/>
                    </mxGeometry>
                </mxCell>
                <mxCell id="17" value="プレイヤーの解答（array）&lt;br&gt;選択肢の正解と不正解の情報" style="connectable=0;recursiveResize=0;fontStyle=0;align=center;whiteSpace=wrap;html=1;fillColor=#eeeeee;strokeColor=#36393d;fontColor=#0e0101;" parent="15" vertex="1">
                    <mxGeometry x="163" width="167" height="33" as="geometry">
                        <mxRectangle width="167" height="33" as="alternateBounds"/>
                    </mxGeometry>
                </mxCell>
                <mxCell id="19" value="" style="shape=tableRow;horizontal=0;startSize=0;swimlaneHead=0;swimlaneBody=0;top=0;left=0;bottom=0;right=0;dropTarget=0;collapsible=0;recursiveResize=0;expand=0;fontStyle=1;fillColor=#eeeeee;strokeColor=#36393d;fontColor=#0e0101;" parent="2" vertex="1">
                    <mxGeometry y="129" width="330" height="31" as="geometry"/>
                </mxCell>
                <mxCell id="20" value="返り値" style="connectable=0;recursiveResize=0;whiteSpace=wrap;html=1;fillColor=#eeeeee;strokeColor=#36393d;fontColor=#0e0101;" parent="19" vertex="1">
                    <mxGeometry width="163" height="31" as="geometry">
                        <mxRectangle width="163" height="31" as="alternateBounds"/>
                    </mxGeometry>
                </mxCell>
                <mxCell id="21" value="正解か不正解か（boolean）" style="connectable=0;recursiveResize=0;whiteSpace=wrap;html=1;fillColor=#eeeeee;strokeColor=#36393d;fontColor=#0e0101;" parent="19" vertex="1">
                    <mxGeometry x="163" width="167" height="31" as="geometry">
                        <mxRectangle width="167" height="31" as="alternateBounds"/>
                    </mxGeometry>
                </mxCell>
            </root>
        </mxGraphModel>
    </diagram>
</mxfile>
